<?xml version="1.0" encoding="UTF-8"?>
<svg xmlns="http://www.w3.org/2000/svg" xmlns:xlink="http://www.w3.org/1999/xlink" width="8.903" height="8.903" viewBox="0 0 8.903 8.903">
<defs>
<clipPath id="clip-0">
<path clip-rule="nonzero" d="M 0 0 L 8.902344 0 L 8.902344 2 L 0 2 Z M 0 0 "/>
</clipPath>
<clipPath id="clip-1">
<path clip-rule="nonzero" d="M 0 7 L 8.902344 7 L 8.902344 8.902344 L 0 8.902344 Z M 0 7 "/>
</clipPath>
<clipPath id="clip-2">
<path clip-rule="nonzero" d="M 0 1 L 8.902344 1 L 8.902344 4 L 0 4 Z M 0 1 "/>
</clipPath>
<clipPath id="clip-3">
<path clip-rule="nonzero" d="M 0 5 L 8.902344 5 L 8.902344 8 L 0 8 Z M 0 5 "/>
</clipPath>
<clipPath id="clip-4">
<path clip-rule="nonzero" d="M 0 3 L 8.902344 3 L 8.902344 6 L 0 6 Z M 0 3 "/>
</clipPath>
<clipPath id="clip-5">
<path clip-rule="nonzero" d="M 0 0 L 8.902344 0 L 8.902344 8.902344 L 0 8.902344 Z M 0 0 "/>
</clipPath>
</defs>
<g clip-path="url(#clip-0)">
<path fill-rule="nonzero" fill="rgb(33.332825%, 80.39093%, 98.822021%)" fill-opacity="1" d="M 8.703125 0.199219 L 8.703125 1.984375 L 0.199219 1.984375 L 0.199219 0.199219 Z M 8.703125 0.199219 "/>
</g>
<g clip-path="url(#clip-1)">
<path fill-rule="nonzero" fill="rgb(33.332825%, 80.39093%, 98.822021%)" fill-opacity="1" d="M 8.703125 7.003906 L 8.703125 8.703125 L 0.199219 8.703125 L 0.199219 7.003906 Z M 8.703125 7.003906 "/>
</g>
<g clip-path="url(#clip-2)">
<path fill-rule="nonzero" fill="rgb(97.253418%, 54.508972%, 76.077271%)" fill-opacity="1" d="M 8.703125 1.902344 L 8.703125 3.601562 L 0.199219 3.601562 L 0.199219 1.902344 Z M 8.703125 1.902344 "/>
</g>
<g clip-path="url(#clip-3)">
<path fill-rule="nonzero" fill="rgb(97.253418%, 54.508972%, 76.077271%)" fill-opacity="1" d="M 8.703125 5.300781 L 8.703125 7.003906 L 0.199219 7.003906 L 0.199219 5.300781 Z M 8.703125 5.300781 "/>
</g>
<g clip-path="url(#clip-4)">
<path fill-rule="nonzero" fill="rgb(100%, 100%, 100%)" fill-opacity="1" d="M 8.703125 3.601562 L 8.703125 5.300781 L 0.199219 5.300781 L 0.199219 3.601562 Z M 8.703125 3.601562 "/>
</g>
<g clip-path="url(#clip-5)">
<path fill="none" stroke-width="0.3985" stroke-linecap="butt" stroke-linejoin="miter" stroke="rgb(0%, 0%, 0%)" stroke-opacity="1" stroke-miterlimit="10" d="M 0.000125 0.00078125 L 0.000125 -8.503125 L -8.503781 -8.503125 L -8.503781 0.00078125 Z M 0.000125 0.00078125 " transform="matrix(1, 0, 0, -1, 8.703, 0.2)"/>
</g>
</svg>
